<svg width="16" height="19" viewBox="0 0 16 19" fill="none" xmlns="http://www.w3.org/2000/svg">
<path d="M7.63122 0.773303C7.88092 0.737675 8.11866 0.737675 8.36836 0.773303C8.61497 0.80849 8.82073 0.863983 9.29436 1.02186L14.1658 2.64568C14.7492 2.84013 15.1426 3.38605 15.1426 4.00095V10.629C15.1426 14.0536 13.0867 16.6771 9.10113 18.4449L8.83808 18.5591C8.30242 18.7868 7.69718 18.7868 7.16151 18.5591C3.00503 16.7923 0.856934 14.1307 0.856934 10.629V4.00095C0.856934 3.38605 1.25041 2.84013 1.83375 2.64568L6.83959 0.977486C7.22041 0.853088 7.40927 0.804972 7.63122 0.773303ZM8.16657 2.18755C8.05072 2.17102 7.94886 2.17102 7.83301 2.18755C7.69023 2.20792 7.55582 2.24417 7.15698 2.37712L2.2855 4.00095V10.629C2.2855 13.4975 4.05055 15.6845 7.72037 17.2444C7.89892 17.3203 8.10067 17.3203 8.27415 17.2466L8.527 17.1368C12.0289 15.5835 13.7141 13.4331 13.7141 10.629V4.00095L8.73061 2.34006C8.48653 2.25997 8.35866 2.2233 8.25342 2.20233L8.16657 2.18755Z" fill="#749FC8"/>
</svg>
