<svg width="18" height="17" viewBox="0 0 18 17" fill="none" xmlns="http://www.w3.org/2000/svg">
<path d="M13.9089 0.557129C15.1825 0.557129 15.6443 0.689737 16.1099 0.938747C16.5755 1.18776 16.9409 1.55317 17.1899 2.01878C17.439 2.48439 17.5716 2.94622 17.5716 4.21982V10.6673L17.5709 10.7321V8.42641L17.5668 8.49757C17.5255 8.85281 17.2236 9.12856 16.8573 9.12856C16.4628 9.12856 16.143 8.80876 16.143 8.41427V6.27141H1.85728V10.1544C1.85728 10.7912 1.92359 11.0221 2.04809 11.2549C2.1726 11.4877 2.3553 11.6704 2.58811 11.7949C2.803 11.9098 3.01629 11.9752 3.54869 11.9845L3.68863 11.9857H15.133L13.4951 10.3479C13.2161 10.069 13.2161 9.61671 13.4951 9.33777C13.774 9.05882 14.2263 9.05882 14.5052 9.33777L17.3624 12.1949C17.6413 12.4739 17.6413 12.9261 17.3624 13.2051L14.5052 16.0622C14.2263 16.3412 13.774 16.3412 13.4951 16.0622C13.2161 15.7833 13.2161 15.331 13.4951 15.0521L15.1368 13.4102C15.0404 13.4129 14.9367 13.4143 14.8245 13.4143H4.0914C2.81781 13.4143 2.35597 13.2817 1.89036 13.0327C1.42475 12.7836 1.05934 12.4182 0.810329 11.9526C0.561319 11.487 0.428711 11.0252 0.428711 9.75158V4.21982C0.428711 2.94622 0.561319 2.48439 0.810329 2.01878C1.05934 1.55317 1.42475 1.18776 1.89036 0.938747C2.35597 0.689737 2.81781 0.557129 4.0914 0.557129H13.9089ZM14.3116 1.9857H3.68863C3.05183 1.9857 2.82091 2.052 2.58811 2.17651C2.3553 2.30101 2.1726 2.48372 2.04809 2.71652C1.93316 2.93142 1.86783 3.14471 1.85846 3.67711L1.85728 3.81705V4.84284H16.143V3.81705C16.143 3.18025 16.0767 2.94933 15.9522 2.71652C15.8277 2.48372 15.645 2.30101 15.4122 2.17651C15.1794 2.052 14.9484 1.9857 14.3116 1.9857Z" fill="#749FC8"/>
</svg>
