<svg width="16" height="16" viewBox="0 0 16 16" fill="none" xmlns="http://www.w3.org/2000/svg">
<path d="M15.1393 11.3989C15.0221 13.6355 11.8219 15.2002 7.99979 15.2002C4.10551 15.2002 0.856934 13.5759 0.856934 11.2716V4.12877L0.860259 4.00146C0.977473 1.76488 4.17763 0.200195 7.99979 0.200195C11.8941 0.200195 15.1426 1.82449 15.1426 4.12877V11.2716L15.1393 11.3989ZM13.7149 6.53269C12.4031 7.48293 10.3156 8.05734 7.99979 8.05734C5.68439 8.05734 3.59725 7.48314 2.28545 6.53322L2.2855 7.7002C2.2855 8.94632 4.79326 10.2002 7.99979 10.2002C11.2063 10.2002 13.7141 8.94632 13.7141 7.7002L13.7149 6.53269ZM7.99979 1.62877C4.79326 1.62877 2.2855 2.88265 2.2855 4.12877C2.2855 5.37489 4.79326 6.62877 7.99979 6.62877C11.2063 6.62877 13.7141 5.37489 13.7141 4.12877C13.7141 2.88265 11.2063 1.62877 7.99979 1.62877ZM13.7149 10.1041C12.4031 11.0544 10.3156 11.6288 7.99979 11.6288C5.68439 11.6288 3.59725 11.0546 2.28545 10.1046L2.2855 11.2716L2.2892 11.3547C2.39731 12.5729 4.86452 13.7716 7.99979 13.7716C11.2063 13.7716 13.7141 12.5177 13.7141 11.2716L13.7149 10.1041Z" fill="#749FC8"/>
</svg>
