<svg width="18" height="18" viewBox="0 0 18 18" fill="none" xmlns="http://www.w3.org/2000/svg">
<path d="M5.59836 9.83353C6.16348 9.83353 6.54638 9.90747 6.94773 10.1221C7.34494 10.3345 7.66563 10.6552 7.87806 11.0524C8.06886 11.4092 8.14848 11.7514 8.16382 12.2199L8.16665 12.4018V14.5986C8.16665 15.1637 8.09271 15.5466 7.87806 15.9479C7.66563 16.3451 7.34494 16.6658 6.94773 16.8783C6.59098 17.0691 6.2488 17.1487 5.78026 17.164L5.59836 17.1669H3.4016C2.83648 17.1669 2.45358 17.0929 2.05223 16.8783C1.65502 16.6658 1.33433 16.3451 1.1219 15.9479C0.931103 15.5912 0.851481 15.249 0.836143 14.7805L0.833313 14.5986V12.4018C0.833313 11.8367 0.907254 11.4538 1.1219 11.0524C1.33433 10.6552 1.65502 10.3345 2.05223 10.1221C2.40898 9.93132 2.75116 9.8517 3.2197 9.83636L3.4016 9.83353H5.59836ZM14.5984 9.83353C15.1635 9.83353 15.5464 9.90747 15.9477 10.1221C16.3449 10.3345 16.6656 10.6552 16.8781 11.0524C17.0689 11.4092 17.1485 11.7514 17.1638 12.2199L17.1666 12.4018V14.5986C17.1666 15.1637 17.0927 15.5466 16.8781 15.9479C16.6656 16.3451 16.3449 16.6658 15.9477 16.8783C15.591 17.0691 15.2488 17.1487 14.7803 17.164L14.5984 17.1669H12.4016C11.8365 17.1669 11.4536 17.0929 11.0522 16.8783C10.655 16.6658 10.3343 16.3451 10.1219 15.9479C9.93111 15.5912 9.85148 15.249 9.83614 14.7805L9.83331 14.5986V12.4018C9.83331 11.8367 9.90726 11.4538 10.1219 11.0524C10.3343 10.6552 10.655 10.3345 11.0522 10.1221C11.409 9.93132 11.7512 9.8517 12.2197 9.83636L12.4016 9.83353H14.5984ZM5.59836 11.3335H3.4016C3.03013 11.3335 2.89543 11.3722 2.75963 11.4448C2.62382 11.5175 2.51725 11.624 2.44462 11.7598C2.38107 11.8787 2.34351 11.9967 2.33512 12.2731L2.33331 12.4018V14.5986C2.33331 14.97 2.37199 15.1047 2.44462 15.2405C2.51725 15.3763 2.62382 15.4829 2.75963 15.5556C2.87845 15.6191 2.99644 15.6567 3.27293 15.6651L3.4016 15.6669H5.59836C5.96983 15.6669 6.10453 15.6282 6.24033 15.5556C6.37614 15.4829 6.48271 15.3763 6.55534 15.2405C6.61889 15.1217 6.65645 15.0037 6.66484 14.7272L6.66665 14.5986V12.4018C6.66665 12.0303 6.62797 11.8956 6.55534 11.7598C6.48271 11.624 6.37614 11.5175 6.24033 11.4448C6.10453 11.3722 5.96983 11.3335 5.59836 11.3335ZM14.5984 11.3335H12.4016C12.0301 11.3335 11.8954 11.3722 11.7596 11.4448C11.6238 11.5175 11.5172 11.624 11.4446 11.7598C11.3811 11.8787 11.3435 11.9967 11.3351 12.2731L11.3333 12.4018V14.5986C11.3333 14.97 11.372 15.1047 11.4446 15.2405C11.5172 15.3763 11.6238 15.4829 11.7596 15.5556C11.8785 15.6191 11.9964 15.6567 12.2729 15.6651L12.4016 15.6669H14.5984C14.9698 15.6669 15.1045 15.6282 15.2403 15.5556C15.3761 15.4829 15.4827 15.3763 15.5553 15.2405C15.6189 15.1217 15.6564 15.0037 15.6648 14.7272L15.6666 14.5986V12.4018C15.6666 12.0303 15.628 11.8956 15.5553 11.7598C15.4827 11.624 15.3761 11.5175 15.2403 11.4448C15.1045 11.3722 14.9698 11.3335 14.5984 11.3335ZM14.1578 0.380708C14.539 0.496226 14.8339 0.677929 15.1694 0.989251L15.316 1.1308L16.8694 2.68414C17.269 3.08374 17.4874 3.40678 17.6195 3.84235C17.7501 4.27343 17.7501 4.72696 17.6195 5.15804C17.5039 5.53916 17.3222 5.83413 17.0109 6.16961L16.8694 6.31625L15.316 7.86959C14.9164 8.26919 14.5934 8.48766 14.1578 8.61968C13.7267 8.75034 13.2732 8.75034 12.8421 8.61968C12.461 8.50416 12.166 8.32246 11.8306 8.01114L11.6839 7.86959L10.1306 6.31625C9.73098 5.91664 9.51252 5.59361 9.3805 5.15804C9.24984 4.72696 9.24984 4.27343 9.3805 3.84235C9.49601 3.46122 9.67772 3.16626 9.98904 2.83077L10.1306 2.68414L11.6839 1.1308C12.0835 0.731195 12.4066 0.512729 12.8421 0.380708C13.2732 0.25005 13.7267 0.25005 14.1578 0.380708ZM5.59836 0.833527C6.16348 0.833527 6.54638 0.907468 6.94773 1.12211C7.34494 1.33454 7.66563 1.65524 7.87806 2.05244C8.09271 2.45379 8.16665 2.83669 8.16665 3.40181V5.59857C8.16665 6.16369 8.09271 6.54659 7.87806 6.94794C7.66563 7.34515 7.34494 7.66585 6.94773 7.87827C6.54638 8.09292 6.16348 8.16686 5.59836 8.16686H3.4016C2.83648 8.16686 2.45358 8.09292 2.05223 7.87827C1.65502 7.66585 1.33433 7.34515 1.1219 6.94794C0.907254 6.54659 0.833313 6.16369 0.833313 5.59857V3.40181C0.833313 2.83669 0.907254 2.45379 1.1219 2.05244C1.33433 1.65524 1.65502 1.33454 2.05223 1.12211C2.45358 0.907468 2.83648 0.833527 3.4016 0.833527H5.59836ZM13.2772 1.81622C13.1483 1.85531 13.0383 1.91218 12.8368 2.10175L12.7446 2.19146L11.1912 3.7448C10.9286 4.00747 10.8607 4.13007 10.816 4.27745C10.7713 4.42483 10.7713 4.57556 10.816 4.72294C10.8551 4.8519 10.912 4.96188 11.1015 5.16333L11.1912 5.25559L12.7446 6.80893C13.0073 7.0716 13.1299 7.1395 13.2772 7.18417C13.4246 7.22884 13.5753 7.22884 13.7227 7.18417C13.8517 7.14508 13.9617 7.08821 14.1631 6.89864L14.2554 6.80893L15.8087 5.25559C16.0714 4.99292 16.1393 4.87032 16.184 4.72294C16.2286 4.57556 16.2286 4.42483 16.184 4.27745C16.1449 4.14849 16.088 4.0385 15.8984 3.83706L15.8087 3.7448L14.2554 2.19146C13.9927 1.92879 13.8701 1.86089 13.7227 1.81622C13.5753 1.77155 13.4246 1.77155 13.2772 1.81622ZM5.59836 2.33353H3.4016C3.03013 2.33353 2.89543 2.3722 2.75963 2.44483C2.62382 2.51746 2.51725 2.62404 2.44462 2.75984C2.37199 2.89564 2.33331 3.03035 2.33331 3.40181V5.59857C2.33331 5.97004 2.37199 6.10474 2.44462 6.24055C2.51725 6.37635 2.62382 6.48293 2.75963 6.55555C2.89543 6.62818 3.03013 6.66686 3.4016 6.66686H5.59836C5.96983 6.66686 6.10453 6.62818 6.24033 6.55555C6.37614 6.48293 6.48271 6.37635 6.55534 6.24055C6.62797 6.10474 6.66665 5.97004 6.66665 5.59857V3.40181C6.66665 3.03035 6.62797 2.89564 6.55534 2.75984C6.48271 2.62404 6.37614 2.51746 6.24033 2.44483C6.10453 2.3722 5.96983 2.33353 5.59836 2.33353Z" fill="#749FC8"/>
</svg>
