<svg width="16" height="18" viewBox="0 0 16 18" fill="none" xmlns="http://www.w3.org/2000/svg">
<path d="M8.86075 0.216079C9.15017 0.282784 9.41166 0.391095 9.66348 0.548581C9.91769 0.70756 10.1127 0.87457 10.5151 1.27696L13.9946 4.75642C14.397 5.1588 14.564 5.35387 14.723 5.60807C14.8805 5.85989 14.9888 6.12138 15.0555 6.4108C15.1228 6.70297 15.1426 6.959 15.1426 7.52806V12.4369C15.1426 13.8511 15.0102 14.5371 14.6289 15.25C14.2822 15.8983 13.7691 16.4113 13.1209 16.758C12.4079 17.1393 11.722 17.2718 10.3078 17.2718H5.69175C4.2776 17.2718 3.59164 17.1393 2.87872 16.758C2.23043 16.4113 1.71738 15.8983 1.37067 15.25C0.9894 14.5371 0.856934 13.8511 0.856934 12.4369V4.46173C0.856934 3.54397 1.02243 2.80185 1.37067 2.15069C1.71738 1.5024 2.23043 0.989353 2.87872 0.642646C3.52988 0.294403 4.272 0.128906 5.18976 0.128906H7.74349C8.31256 0.128906 8.56858 0.148742 8.86075 0.216079ZM7.87561 1.55786L5.18976 1.55748C4.49571 1.55748 3.98394 1.6716 3.55243 1.90238C3.1531 2.11594 2.84397 2.42507 2.63041 2.8244C2.39963 3.25592 2.2855 3.76768 2.2855 4.46173V12.4369C2.2855 13.6354 2.37495 14.0986 2.63041 14.5763C2.84397 14.9756 3.1531 15.2847 3.55243 15.4983C4.0301 15.7537 4.49327 15.8432 5.69175 15.8432H10.3078C11.5063 15.8432 11.9695 15.7537 12.4471 15.4983C12.8465 15.2847 13.1556 14.9756 13.3692 14.5763C13.6246 14.0986 13.7141 13.6354 13.7141 12.4369V7.52806C13.7141 7.42999 13.7135 7.34541 13.7123 7.27146L9.7855 7.27176C8.79928 7.27176 7.99979 6.47227 7.99979 5.48605L8.00085 1.55923C7.96215 1.5586 7.92054 1.55815 7.87561 1.55786ZM9.50498 2.28711L9.42836 2.21105V5.48605C9.42836 5.66138 9.5547 5.8072 9.72131 5.83744L9.7855 5.84319L13.0622 5.84466C13.0377 5.81998 13.0119 5.79399 12.9844 5.76657L9.50498 2.28711Z" fill="#749FC8"/>
</svg>
