<svg width="18" height="17" viewBox="0 0 18 17" fill="none" xmlns="http://www.w3.org/2000/svg">
<path d="M8.99986 12.7176L13.3099 15.3502L12.1381 10.4376L15.9737 7.15194L10.9394 6.74835L8.99986 2.08514L7.06032 6.74835L2.026 7.15194L5.86162 10.4376L4.68978 15.3502L8.99986 12.7176ZM5.40571 16.6706C4.71388 17.0932 3.81048 16.8749 3.38791 16.183C3.18576 15.8521 3.1228 15.4546 3.21278 15.0773L4.18998 10.9807L0.991476 8.24086C0.375802 7.71347 0.304234 6.78683 0.831624 6.17116C1.08392 5.87663 1.44252 5.69391 1.8291 5.66292L6.02719 5.32636L7.64455 1.43774C7.95588 0.689229 8.81505 0.334817 9.56356 0.646141C9.92164 0.795075 10.2062 1.07966 10.3552 1.43774L11.9725 5.32636L16.1706 5.66292C16.9787 5.7277 17.5813 6.4353 17.5165 7.24338C17.4855 7.62996 17.3028 7.98856 17.0082 8.24086L13.8097 10.9807L14.7869 15.0773C14.975 15.8659 14.4883 16.6576 13.6997 16.8457C13.3225 16.9357 12.925 16.8727 12.594 16.6706L8.99986 14.4753L5.40571 16.6706Z" fill="#749FC8"/>
</svg>
