<svg width="16" height="16" viewBox="0 0 16 16" fill="none" xmlns="http://www.w3.org/2000/svg">
<path d="M8.00016 14.4168C11.544 14.4168 14.4168 11.544 14.4168 8.00016C14.4168 4.45634 11.544 1.5835 8.00016 1.5835C4.45634 1.5835 1.5835 4.45634 1.5835 8.00016C1.5835 11.544 4.45634 14.4168 8.00016 14.4168ZM8.00016 15.9168C3.62791 15.9168 0.0834961 12.3724 0.0834961 8.00016C0.0834961 3.62791 3.62791 0.0834961 8.00016 0.0834961C12.3724 0.0834961 15.9168 3.62791 15.9168 8.00016C15.9168 12.3724 12.3724 15.9168 8.00016 15.9168ZM8.00016 6.12211C7.42487 6.12211 6.9585 5.65574 6.9585 5.08044C6.9585 4.50515 7.42487 4.03878 8.00016 4.03878C8.57546 4.03878 9.04183 4.50515 9.04183 5.08044C9.04183 5.65574 8.57546 6.12211 8.00016 6.12211ZM7.25016 8.35631C7.25016 7.92781 7.58595 7.58044 8.00016 7.58044C8.41438 7.58044 8.75016 7.92781 8.75016 8.35631V11.3879C8.75016 11.8164 8.41438 12.1638 8.00016 12.1638C7.58595 12.1638 7.25016 11.8164 7.25016 11.3879V8.35631Z" fill="#749FC8"/>
</svg>
