<svg width="16" height="15" viewBox="0 0 16 15" fill="none" xmlns="http://www.w3.org/2000/svg">
<path d="M5 1C5.41421 1 5.75 1.33579 5.75 1.75C5.75 2.16421 5.41421 2.5 5 2.5H3.95486C3.05206 2.5 2.72214 2.56371 2.38264 2.74528C2.10594 2.89326 1.89326 3.10594 1.74528 3.38264C1.59164 3.66991 1.52239 3.95032 1.50472 4.57674L1.5 4.95486V11.0451C1.5 11.9479 1.56371 12.2779 1.74528 12.6174C1.89326 12.8941 2.10594 13.1067 2.38264 13.2547C2.66991 13.4084 2.95032 13.4776 3.57674 13.4953L3.95486 13.5H12.0451C12.9479 13.5 13.2779 13.4363 13.6174 13.2547C13.8941 13.1067 14.1067 12.8941 14.2547 12.6174C14.4363 12.2779 14.5 11.9479 14.5 11.0451V4.95486C14.5 4.05206 14.4363 3.72214 14.2547 3.38264C14.1067 3.10594 13.8941 2.89326 13.6174 2.74528C13.2779 2.56371 12.9479 2.5 12.0451 2.5H11C10.5858 2.5 10.25 2.16421 10.25 1.75C10.25 1.33579 10.5858 1 11 1L12.296 1.00198C13.2613 1.01796 13.7834 1.13301 14.3248 1.42256C14.8629 1.71034 15.2897 2.13714 15.5774 2.67524C15.8911 3.26176 16 3.82561 16 4.95486L15.998 11.296C15.982 12.2613 15.867 12.7834 15.5774 13.3248C15.2897 13.8629 14.8629 14.2897 14.3248 14.5774C13.7382 14.8911 13.1744 15 12.0451 15H3.95486C2.82561 15 2.26176 14.8911 1.67524 14.5774C1.13714 14.2897 0.71034 13.8629 0.422556 13.3248C0.108886 12.7382 0 12.1744 0 11.0451V4.95486C0 3.82561 0.108886 3.26176 0.422556 2.67524C0.71034 2.13714 1.13714 1.71034 1.67524 1.42256C2.26176 1.10889 2.82561 1 3.95486 1H5ZM9.5 9C9.91421 9 10.25 9.33579 10.25 9.75C10.25 10.1642 9.91421 10.5 9.5 10.5H4.25C3.83579 10.5 3.5 10.1642 3.5 9.75C3.5 9.33579 3.83579 9 4.25 9H9.5ZM11.75 6C12.1642 6 12.5 6.33579 12.5 6.75C12.5 7.16421 12.1642 7.5 11.75 7.5H4.25C3.83579 7.5 3.5 7.16421 3.5 6.75C3.5 6.33579 3.83579 6 4.25 6H11.75ZM8.02147 0C8.18553 0 8.31155 0.0301684 8.41747 0.0868182C8.5234 0.143468 8.60653 0.226599 8.66318 0.332525C8.71983 0.438451 8.75 0.564466 8.75 0.728528V2.77147C8.75 2.93553 8.71983 3.06155 8.66318 3.16747C8.60653 3.2734 8.5234 3.35653 8.41747 3.41318C8.31155 3.46983 8.18553 3.5 8.02147 3.5H7.97853C7.81447 3.5 7.68845 3.46983 7.58253 3.41318C7.4766 3.35653 7.39347 3.2734 7.33682 3.16747C7.28017 3.06155 7.25 2.93553 7.25 2.77147V0.728528C7.25 0.564466 7.28017 0.438451 7.33682 0.332525C7.39347 0.226599 7.4766 0.143468 7.58253 0.0868182C7.68845 0.0301684 7.81447 0 7.97853 0H8.02147Z" fill="#749FC8"/>
</svg>
