<svg width="12" height="16" viewBox="0 0 12 16" fill="none" xmlns="http://www.w3.org/2000/svg">
<path d="M9.75415 1.65017C8.80415 0.800167 7.47081 0.333496 6.02081 0.333496C4.57081 0.333496 3.23747 0.800167 2.28747 1.65017C1.13747 2.6835 0.520809 4.2335 0.520809 6.15017C0.520809 10.3335 5.33749 15.2502 5.55415 15.4502C5.68749 15.5835 5.85414 15.6502 6.02081 15.6502C6.18748 15.6502 6.37082 15.5835 6.48748 15.4502C6.68748 15.2502 11.5208 10.3335 11.5208 6.15017C11.5041 4.2335 10.9041 2.6835 9.75415 1.65017ZM6.00415 14.0168C5.55415 13.5168 4.83749 12.6835 4.13749 11.6835C2.63749 9.55016 1.83748 7.65016 1.83748 6.16683C1.83748 2.00016 5.02081 1.66683 6.00415 1.66683C9.87081 1.66683 10.1708 5.11683 10.1708 6.16683C10.1708 9.10016 7.18748 12.7168 6.00415 14.0168ZM6.00415 3.21683C4.53748 3.21683 3.35414 4.4335 3.35414 5.91683C3.35414 7.40016 4.53748 8.61683 6.00415 8.61683C7.47081 8.61683 8.65415 7.40016 8.65415 5.91683C8.65415 4.41683 7.47081 3.21683 6.00415 3.21683ZM6.00415 7.43349C5.18748 7.43349 4.52081 6.75017 4.52081 5.90017C4.52081 5.05017 5.18748 4.36683 6.00415 4.36683C6.82081 4.36683 7.48748 5.05017 7.48748 5.90017C7.48748 6.75017 6.82081 7.43349 6.00415 7.43349Z" fill="#749FC8"/>
</svg>
