<svg width="18" height="18" viewBox="0 0 18 18" fill="none" xmlns="http://www.w3.org/2000/svg">
<path d="M6.84143 0.75L11.4361 0.751404C13.056 0.768383 13.8741 0.941615 14.7221 1.39517C15.5318 1.82821 16.1718 2.46816 16.6048 3.27787C17.0836 4.17306 17.25 5.03484 17.25 6.84143V11.1586C17.25 12.9652 17.0836 13.8269 16.6048 14.7221C16.1718 15.5318 15.5318 16.1718 14.7221 16.6048C13.8269 17.0836 12.9652 17.25 11.1586 17.25H6.84143C5.03484 17.25 4.17306 17.0836 3.27787 16.6048C2.46816 16.1718 1.82821 15.5318 1.39517 14.7221C0.916418 13.8269 0.75 12.9652 0.75 11.1586L0.751404 6.56389C0.768383 4.94403 0.941615 4.12594 1.39517 3.27787C1.82821 2.46816 2.46816 1.82821 3.27787 1.39517C4.17306 0.916418 5.03484 0.75 6.84143 0.75ZM11.5746 10.0763L8.46802 13.8516C8.20511 14.1711 7.73312 14.2173 7.41322 13.9549L5.7117 12.5591L3.37348 14.8554C3.55637 15.0195 3.76053 15.1619 3.98527 15.2821C4.56521 15.5923 5.12888 15.722 6.37296 15.7458L6.84143 15.75H11.1586L11.627 15.7458C12.7248 15.7248 13.2927 15.6213 13.8096 15.3842L14.0147 15.2821C14.563 14.9889 14.9889 14.563 15.2821 14.0147C15.3653 13.8592 15.4355 13.7049 15.4941 13.5382L11.5746 10.0763ZM11.1586 2.25H6.84143L6.37296 2.25415C5.27524 2.27521 4.70726 2.37868 4.19041 2.61579L3.98527 2.71789C3.43696 3.01113 3.01113 3.43696 2.71789 3.98527L2.61579 4.19041C2.34706 4.77617 2.25 5.42761 2.25 6.84143V11.1586L2.25415 11.627C2.27226 12.5708 2.35128 13.123 2.52377 13.5878L5.14114 11.017C5.41445 10.7486 5.84615 10.7293 6.14233 10.9722L7.78558 12.3202L10.9099 8.52344C11.1796 8.19565 11.6674 8.15686 11.9855 8.4379L15.7429 11.7587C15.744 11.7157 15.745 11.6718 15.7458 11.627L15.75 11.1586V6.84143L15.7458 6.37296C15.7248 5.27524 15.6213 4.70726 15.3842 4.19041L15.2821 3.98527C14.9889 3.43696 14.563 3.01113 14.0147 2.71789C13.4348 2.40773 12.8711 2.27802 11.627 2.25415L11.1586 2.25ZM6.08333 4.83333C6.77369 4.83333 7.33333 5.39298 7.33333 6.08333C7.33333 6.77369 6.77369 7.33333 6.08333 7.33333C5.39298 7.33333 4.83333 6.77369 4.83333 6.08333C4.83333 5.39298 5.39298 4.83333 6.08333 4.83333Z" fill="#749FC8"/>
</svg>
