<svg width="17" height="17" viewBox="0 0 17 17" fill="none" xmlns="http://www.w3.org/2000/svg">
<path d="M5.19587 0.844414L10.8583 0.844621L10.8603 2.27361L5.22999 2.27262C4.03633 2.283 3.53621 2.38884 3.02102 2.66437C2.56349 2.90906 2.20869 3.26386 1.964 3.7214C1.67316 4.26521 1.57139 4.79222 1.57139 6.13584V11.2648C1.57139 12.6085 1.67316 13.1355 1.964 13.6793C2.20869 14.1368 2.56349 14.4916 3.02102 14.7363C3.50759 14.9965 3.98071 15.1054 5.03734 15.1254L5.43547 15.1289H10.5645L10.9626 15.1254C12.0192 15.1054 12.4923 14.9965 12.9789 14.7363C13.4364 14.4916 13.7912 14.1368 14.0359 13.6793C14.2962 13.1927 14.405 12.7196 14.4251 11.663L14.4285 11.2648L14.4255 5.84319L15.8552 5.84234L15.8571 11.2648C15.8571 12.8241 15.7123 13.5739 15.2957 14.353C14.9178 15.0595 14.3591 15.6182 13.6526 15.996C12.8736 16.4127 12.1237 16.5575 10.5645 16.5575H5.43547C3.87618 16.5575 3.12637 16.4127 2.34731 15.996C1.64082 15.6182 1.0821 15.0595 0.704263 14.353C0.309545 13.6149 0.158816 12.9031 0.144043 11.5044V5.89625C0.158816 4.49755 0.309545 3.78574 0.704263 3.04768C1.0821 2.34119 1.64082 1.78247 2.34731 1.40463C3.08537 1.00992 3.79717 0.859187 5.19587 0.844414ZM14.5558 2.1445C14.8626 2.45134 14.8626 2.94882 14.5558 3.25566L8.20545 9.60601C7.72929 10.0822 7.16344 10.4592 6.54063 10.7153L6.23039 10.8428C6.08444 10.9028 5.91749 10.8331 5.85749 10.6872C5.82887 10.6176 5.82887 10.5395 5.85749 10.4699L5.98504 10.1597C6.24111 9.53686 6.61813 8.97101 7.09429 8.49484L13.4446 2.1445C13.7515 1.83766 14.249 1.83766 14.5558 2.1445ZM15.1428 5.12891C15.5091 5.12891 15.811 5.40465 15.8523 5.75989L15.8571 5.84319H14.4285C14.4285 5.4487 14.7483 5.12891 15.1428 5.12891ZM10.8571 0.843192C11.2516 0.843192 11.5714 1.16299 11.5714 1.55748C11.5714 1.92379 11.2956 2.2257 10.9404 2.26696L10.8571 2.27176V0.843192ZM15.7142 0.128906C16.1876 0.128906 16.5714 0.512662 16.5714 0.986049C16.5714 1.45944 16.1876 1.84319 15.7142 1.84319C15.2409 1.84319 14.8571 1.45944 14.8571 0.986049C14.8571 0.512662 15.2409 0.128906 15.7142 0.128906Z" fill="#749FC8"/>
</svg>
