<svg width="18" height="18" viewBox="0 0 18 18" fill="none" xmlns="http://www.w3.org/2000/svg">
<path d="M9.00002 0.428711C13.7339 0.428711 17.5714 4.26627 17.5714 9.00014C17.5714 13.734 13.7339 17.5716 9.00002 17.5716C4.26615 17.5716 0.428589 13.734 0.428589 9.00014C0.428589 4.26627 4.26615 0.428711 9.00002 0.428711ZM9.00002 13.643C7.51006 13.643 6.08576 14.0587 4.85945 14.8209C6.02728 15.6534 7.45647 16.143 9.00002 16.143C10.5432 16.143 11.9722 15.6536 13.14 14.8215C11.9139 14.0586 10.4898 13.643 9.00002 13.643ZM9.00002 1.85728C5.05513 1.85728 1.85716 5.05525 1.85716 9.00014C1.85716 10.8685 2.57449 12.5693 3.74875 13.8422C5.27546 12.7917 7.09358 12.2144 9.00002 12.2144C10.9067 12.2144 12.725 12.7918 14.2519 13.8411C15.4258 12.5686 16.1429 10.8681 16.1429 9.00014C16.1429 5.05525 12.9449 1.85728 9.00002 1.85728ZM9.00002 4.35728C10.8744 4.35728 12.3929 5.87574 12.3929 7.75014C12.3929 9.62454 10.8744 11.143 9.00002 11.143C7.12562 11.143 5.60716 9.62454 5.60716 7.75014C5.60716 5.87574 7.12562 4.35728 9.00002 4.35728ZM9.00002 5.78585C7.9146 5.78585 7.03573 6.66472 7.03573 7.75014C7.03573 8.83556 7.9146 9.71443 9.00002 9.71443C10.0854 9.71443 10.9643 8.83556 10.9643 7.75014C10.9643 6.66472 10.0854 5.78585 9.00002 5.78585Z" fill="#749FC8"/>
</svg>
