<svg width="19" height="13" viewBox="0 0 19 13" fill="none" xmlns="http://www.w3.org/2000/svg">
<path d="M5.42843 7.41434C8.28364 7.41434 10.7856 8.51606 10.7856 10.9348C10.7856 12.2026 10.2934 12.7715 9.25196 12.7715H1.6049C0.563484 12.7715 0.0712891 12.2026 0.0712891 10.9348C0.0712891 8.51606 2.57322 7.41434 5.42843 7.41434ZM12.9284 7.41434C15.7836 7.41434 18.2856 8.51606 18.2856 10.9348C18.2856 12.2026 17.7934 12.7715 16.752 12.7715H12.5713C12.1768 12.7715 11.857 12.4517 11.857 12.0572C11.857 11.6627 12.1768 11.3429 12.5713 11.3429L16.7947 11.3431C16.8068 11.3433 16.8169 11.3436 16.8252 11.3441L16.8341 11.3451L16.8359 11.3345C16.8434 11.2765 16.8531 11.1766 16.8561 11.0291L16.857 10.9348C16.857 9.62531 15.0802 8.84291 12.9284 8.84291C12.6229 8.84291 12.2868 8.86436 11.95 8.90781C11.5588 8.95828 11.2007 8.68203 11.1502 8.29078C11.0997 7.89954 11.376 7.54145 11.7672 7.49098C12.1649 7.43968 12.562 7.41434 12.9284 7.41434ZM5.42843 8.84291C3.27664 8.84291 1.49986 9.62531 1.49986 10.9348C1.49986 11.135 1.51197 11.2649 1.52099 11.3345L1.522 11.3451L1.53169 11.3441L1.54547 11.3435L9.30616 11.3433C9.31336 11.3435 9.31968 11.3437 9.32517 11.3441L9.33415 11.3451L9.33587 11.3345C9.34489 11.2649 9.357 11.135 9.357 10.9348C9.357 9.62531 7.58023 8.84291 5.42843 8.84291ZM12.9284 0.271484C14.6055 0.271484 15.9641 1.63012 15.9641 3.3072C15.9641 4.98428 14.6055 6.34291 12.9284 6.34291C11.2514 6.34291 9.89272 4.98428 9.89272 3.3072C9.89272 1.63012 11.2514 0.271484 12.9284 0.271484ZM5.42843 0.271484C7.10551 0.271484 8.46415 1.63012 8.46415 3.3072C8.46415 4.98428 7.10551 6.34291 5.42843 6.34291C3.75135 6.34291 2.39272 4.98428 2.39272 3.3072C2.39272 1.63012 3.75135 0.271484 5.42843 0.271484ZM12.9284 1.70006C12.0403 1.70006 11.3213 2.4191 11.3213 3.3072C11.3213 4.1953 12.0403 4.91434 12.9284 4.91434C13.8165 4.91434 14.5356 4.1953 14.5356 3.3072C14.5356 2.4191 13.8165 1.70006 12.9284 1.70006ZM5.42843 1.70006C4.54033 1.70006 3.82129 2.4191 3.82129 3.3072C3.82129 4.1953 4.54033 4.91434 5.42843 4.91434C6.31653 4.91434 7.03557 4.1953 7.03557 3.3072C7.03557 2.4191 6.31653 1.70006 5.42843 1.70006Z" fill="#749FC8"/>
</svg>
