<svg width="18" height="18" viewBox="0 0 18 18" fill="none" xmlns="http://www.w3.org/2000/svg">
<path d="M9.82001 0.457814C10.1254 0.506676 10.4143 0.623527 10.6737 0.831041C11.0986 1.17098 11.3009 1.59949 11.4573 2.22509C11.4974 2.38524 11.5667 2.57194 11.6533 2.75315C11.8519 2.83759 12.0462 2.93145 12.2356 3.03435C12.4226 2.98816 12.6021 2.92681 12.7455 2.86006C13.7543 2.39045 14.6005 2.41513 15.2935 3.16259C15.3521 3.22582 15.3871 3.2677 15.4633 3.36173L15.9128 3.91683C16.0337 4.06612 16.0853 4.13415 16.1616 4.26107C16.6558 5.08352 16.4631 5.84949 15.8384 6.6795C15.7348 6.81721 15.629 6.9975 15.5404 7.18716C15.5963 7.38898 15.6428 7.59362 15.6798 7.80056C15.8389 7.92802 16.008 8.03971 16.1574 8.11594C16.7318 8.40906 17.1038 8.70262 17.3394 9.19312C17.4833 9.49255 17.5321 9.80031 17.511 10.1089C17.4999 10.272 17.4823 10.3629 17.4353 10.5664L17.2746 11.2624C17.2276 11.4659 17.2036 11.5554 17.1421 11.7068C17.0258 11.9934 16.847 12.2486 16.5864 12.4547C16.1596 12.7922 15.6966 12.893 15.0518 12.9047C14.8887 12.9076 14.6938 12.9326 14.5 12.9753C14.3739 13.1494 14.2397 13.3175 14.0977 13.479C14.1002 13.6748 14.1196 13.8673 14.153 14.0247C14.2867 14.6556 14.2926 15.1294 14.0597 15.6212C13.9176 15.9214 13.7091 16.1531 13.4561 16.3309C13.3223 16.4249 13.2406 16.4684 13.0528 16.56L12.4108 16.8731C12.2231 16.9647 12.1385 17.0023 11.982 17.0498C11.6861 17.1398 11.3753 17.1614 11.0512 17.0886C10.5202 16.9693 10.1505 16.6729 9.7357 16.1792C9.62604 16.0487 9.47621 15.9066 9.3133 15.7787C9.20915 15.7835 9.1047 15.7859 9 15.7859C8.8953 15.7859 8.79084 15.7835 8.6867 15.7787C8.52379 15.9066 8.37395 16.0487 8.2643 16.1792C7.84949 16.6729 7.47977 16.9693 6.94883 17.0886C6.62472 17.1614 6.31385 17.1398 6.01795 17.0498C5.86155 17.0023 5.77694 16.9647 5.58917 16.8731L4.94718 16.56C4.89073 16.5325 4.85572 16.5151 4.81482 16.4938C3.878 16.006 3.60337 15.1745 3.84701 14.0247C3.88036 13.8673 3.89983 13.6748 3.90226 13.479C3.76033 13.3175 3.6261 13.1494 3.50005 12.9753C3.30618 12.9326 3.11128 12.9076 2.94819 12.9047C2.30344 12.893 1.84039 12.7922 1.41358 12.4547C1.15303 12.2486 0.974193 11.9934 0.857886 11.7068C0.79641 11.5554 0.772402 11.4659 0.725407 11.2624L0.564728 10.5664C0.514974 10.3509 0.496644 10.2548 0.487206 10.0802C0.469513 9.75281 0.532159 9.42758 0.698325 9.11902C0.94043 8.66944 1.29879 8.39347 1.84262 8.11594C1.992 8.03971 2.16112 7.92802 2.32023 7.80056C2.35719 7.59362 2.4037 7.38898 2.45955 7.18716C2.37102 6.9975 2.2652 6.81721 2.16156 6.6795C1.53693 5.84949 1.34423 5.08352 1.83842 4.26107C1.91468 4.13415 1.96632 4.06612 2.08722 3.91683L2.53673 3.36173C2.61288 3.2677 2.64787 3.22582 2.70649 3.16259C3.39949 2.41513 4.24573 2.39045 5.25448 2.86006C5.39786 2.92681 5.57742 2.98816 5.76438 3.03435C5.9538 2.93145 6.14813 2.83759 6.34675 2.75315C6.43334 2.57194 6.50261 2.38524 6.54265 2.22509C6.69905 1.59949 6.90141 1.17098 7.32633 0.831041C7.58572 0.623527 7.8746 0.506676 8.17999 0.457814C8.30913 0.437152 8.39418 0.430923 8.52999 0.429258L9.35714 0.428711C9.56605 0.428711 9.65859 0.431987 9.82001 0.457814ZM9.41835 1.85743L8.64286 1.85728C8.28571 1.85728 8.10714 1.85728 7.92857 2.57157C7.82945 2.96805 7.62029 3.47456 7.33164 3.90788C6.87265 4.05817 6.44097 4.26878 6.04599 4.53034C5.53401 4.4799 5.01736 4.32546 4.65156 4.15517C3.98408 3.84443 3.8717 3.98321 3.64694 4.26076L3.19742 4.81586C2.97267 5.09342 2.86029 5.23219 3.30301 5.82048C3.5522 6.1516 3.81811 6.64184 3.97231 7.14623C3.81441 7.57431 3.70962 8.02811 3.66593 8.49961C3.30763 8.88123 2.8581 9.20156 2.49198 9.3884C1.83618 9.72307 1.87635 9.89707 1.95669 10.2451L2.11736 10.941C2.1977 11.289 2.23787 11.463 2.97402 11.4763C3.38104 11.4837 3.919 11.5729 4.40465 11.7552C4.65132 12.1658 4.95144 12.5405 5.2954 12.8699C5.3628 13.3824 5.32862 13.9241 5.24455 14.3208C5.09192 15.0411 5.25242 15.1194 5.57342 15.276L6.21542 15.5891C6.53641 15.7456 6.69691 15.8239 7.17054 15.2602C7.43611 14.9441 7.85182 14.5763 8.30659 14.3128C8.53358 14.3422 8.76502 14.3573 9 14.3573C9.23497 14.3573 9.46642 14.3422 9.6934 14.3128C10.1482 14.5763 10.5639 14.9441 10.8295 15.2602C11.3031 15.8239 11.4636 15.7456 11.7846 15.5891L12.4266 15.276C12.7476 15.1194 12.9081 15.0411 12.7555 14.3208C12.6714 13.9241 12.6372 13.3824 12.7046 12.8699C13.0486 12.5405 13.3487 12.1658 13.5953 11.7552C14.081 11.5729 14.619 11.4837 15.026 11.4763C15.7621 11.463 15.8023 11.289 15.8826 10.941L16.0433 10.2451C16.1237 9.89707 16.1638 9.72307 15.508 9.3884C15.1419 9.20156 14.6924 8.88123 14.3341 8.49961C14.2904 8.02811 14.1856 7.57431 14.0277 7.14623C14.1819 6.64184 14.4478 6.1516 14.697 5.82048C15.1397 5.23219 15.0273 5.09342 14.8026 4.81586L14.3531 4.26076C14.1283 3.98321 14.0159 3.84443 13.3484 4.15517C12.9826 4.32546 12.466 4.4799 11.954 4.53034C11.559 4.26878 11.1273 4.05817 10.6684 3.90788C10.3797 3.47456 10.1705 2.96805 10.0714 2.57157C9.90336 1.8993 9.73529 1.85975 9.41835 1.85743ZM9 5.78585C10.7752 5.78585 12.2143 7.22494 12.2143 9.00014C12.2143 10.7753 10.7752 12.2144 9 12.2144C7.2248 12.2144 5.78571 10.7753 5.78571 9.00014C5.78571 7.22494 7.2248 5.78585 9 5.78585ZM9 7.21442C8.01378 7.21442 7.21428 8.01392 7.21428 9.00014C7.21428 9.98636 8.01378 10.7859 9 10.7859C9.98622 10.7859 10.7857 9.98636 10.7857 9.00014C10.7857 8.01392 9.98622 7.21442 9 7.21442Z" fill="#749FC8"/>
</svg>
