<svg width="16" height="16" viewBox="0 0 16 16" fill="none" xmlns="http://www.w3.org/2000/svg">
<path fill-rule="evenodd" clip-rule="evenodd" d="M3.83334 9.36668C4.24755 9.36668 4.58334 9.70247 4.58334 10.1167V13.6167H11.4167V10.1167C11.4167 9.70247 11.7525 9.36668 12.1667 9.36668C12.5809 9.36668 12.9167 9.70247 12.9167 10.1167V14.3667C12.9167 14.7809 12.5809 15.1167 12.1667 15.1167H3.83334C3.41912 15.1167 3.08334 14.7809 3.08334 14.3667V10.1167C3.08334 9.70247 3.41912 9.36668 3.83334 9.36668Z" fill="#749FC8"/>
<path fill-rule="evenodd" clip-rule="evenodd" d="M0.5 14.3667C0.5 13.9524 0.835786 13.6167 1.25 13.6167H14.75C15.1642 13.6167 15.5 13.9524 15.5 14.3667C15.5 14.7809 15.1642 15.1167 14.75 15.1167H1.25C0.835786 15.1167 0.5 14.7809 0.5 14.3667Z" fill="#749FC8"/>
<path fill-rule="evenodd" clip-rule="evenodd" d="M12.0833 6.03332C12.0833 6.53959 12.4937 6.94999 13 6.94999C13.5063 6.94999 13.9167 6.53959 13.9167 6.03332H15.4167C15.4167 7.36801 14.3347 8.44999 13 8.44999C11.6653 8.44999 10.5833 7.36801 10.5833 6.03332H12.0833Z" fill="#749FC8"/>
<path fill-rule="evenodd" clip-rule="evenodd" d="M11.3333 5.28333C11.7476 5.28333 12.0833 5.61911 12.0833 6.03332C12.0833 6.53959 12.4937 6.94999 13 6.94999C13.5063 6.94999 13.9167 6.53959 13.9167 6.03332C13.9167 5.61911 14.2525 5.28333 14.6667 5.28333C15.0809 5.28333 15.4167 5.61911 15.4167 6.03332C15.4167 7.36801 14.3347 8.44999 13 8.44999C11.6653 8.44999 10.5833 7.36801 10.5833 6.03332C10.5833 5.61911 10.9191 5.28333 11.3333 5.28333Z" fill="#749FC8"/>
<path fill-rule="evenodd" clip-rule="evenodd" d="M8 5.28333C8.41422 5.28333 8.75 5.61912 8.75 6.03333C8.75 6.53959 9.16041 6.95 9.66667 6.95C10.1729 6.95 10.5833 6.53959 10.5833 6.03332C10.5833 5.61911 10.9191 5.28333 11.3333 5.28333C11.7476 5.28333 12.0833 5.61911 12.0833 6.03332C12.0833 7.36801 11.0014 8.45 9.66667 8.45C8.33198 8.45 7.25 7.36802 7.25 6.03333C7.25 5.61912 7.58579 5.28333 8 5.28333Z" fill="#749FC8"/>
<path fill-rule="evenodd" clip-rule="evenodd" d="M4.66667 5.28333C5.08089 5.28333 5.41667 5.61912 5.41667 6.03333C5.41667 6.53959 5.82708 6.95 6.33334 6.95C6.8396 6.95 7.25 6.53959 7.25 6.03333C7.25 5.61912 7.58579 5.28333 8 5.28333C8.41422 5.28333 8.75 5.61912 8.75 6.03333C8.75 7.36802 7.66803 8.45 6.33334 8.45C4.99865 8.45 3.91667 7.36802 3.91667 6.03333C3.91667 5.61912 4.25246 5.28333 4.66667 5.28333Z" fill="#749FC8"/>
<path fill-rule="evenodd" clip-rule="evenodd" d="M1.33334 5.28333C1.74755 5.28333 2.08334 5.61912 2.08334 6.03333C2.08334 6.53959 2.49374 6.95 3.00001 6.95C3.50627 6.95 3.91667 6.53959 3.91667 6.03333C3.91667 5.61912 4.25246 5.28333 4.66667 5.28333C5.08089 5.28333 5.41667 5.61912 5.41667 6.03333C5.41667 7.36802 4.33469 8.45 3.00001 8.45C1.66532 8.45 0.583338 7.36802 0.583338 6.03333C0.583338 5.61912 0.919125 5.28333 1.33334 5.28333Z" fill="#749FC8"/>
<path fill-rule="evenodd" clip-rule="evenodd" d="M5.25262 0.283263C5.2825 0.283294 5.31268 0.283326 5.34318 0.283326H10.6568C10.6873 0.283326 10.7175 0.283294 10.7474 0.283263C11.2083 0.282787 11.5966 0.282385 11.9582 0.397866C12.2756 0.499227 12.5686 0.665127 12.8188 0.885144C13.1039 1.13581 13.3033 1.46898 13.5401 1.86445C13.5554 1.89009 13.5709 1.91598 13.5866 1.94213L14.9298 4.18075C14.9374 4.19352 14.945 4.20615 14.9525 4.21866C15.0719 4.41736 15.1727 4.58521 15.2458 4.76907C15.3102 4.93105 15.3568 5.09952 15.385 5.27154C15.4169 5.4668 15.4168 5.66259 15.4167 5.89438C15.4167 5.90898 15.4167 5.92372 15.4167 5.93862L15.4167 6.03332H13.9167L13.9167 5.93862C13.9167 5.64013 13.9144 5.57336 13.9047 5.51367C13.894 5.44842 13.8763 5.38452 13.8519 5.32307C13.8295 5.26686 13.7971 5.20845 13.6435 4.9525L12.3004 2.71388C11.9916 2.19927 11.9148 2.08762 11.8283 2.0116C11.7334 1.92815 11.6223 1.86522 11.5019 1.82677C11.3922 1.79175 11.257 1.78333 10.6568 1.78333H5.34318C4.74305 1.78333 4.60779 1.79175 4.49813 1.82677C4.37774 1.86522 4.26659 1.92815 4.17168 2.0116C4.08524 2.08762 4.00842 2.19927 3.69965 2.71388L2.35648 4.9525C2.20291 5.20845 2.17049 5.26686 2.14815 5.32307C2.12373 5.38452 2.10603 5.44842 2.09536 5.51367C2.0856 5.57336 2.08334 5.64013 2.08334 5.93862L2.08334 6.03333H0.583338L0.583341 5.93862C0.583341 5.92373 0.583333 5.90899 0.583325 5.89439C0.583201 5.6626 0.583095 5.4668 0.615032 5.27154C0.643168 5.09952 0.689831 4.93105 0.754208 4.76907C0.827282 4.58521 0.928108 4.41737 1.04747 4.21867C1.05499 4.20616 1.06258 4.19352 1.07024 4.18076L2.41341 1.94213C2.42911 1.91598 2.44461 1.89008 2.45995 1.86445C2.69668 1.46898 2.89611 1.13581 3.18118 0.885144C3.4314 0.665127 3.72441 0.499227 4.04181 0.397866C4.40342 0.282385 4.79172 0.282787 5.25262 0.283263Z" fill="#749FC8"/>
</svg>
