<svg width="20" height="14" viewBox="0 0 20 14" fill="none" xmlns="http://www.w3.org/2000/svg">
<path d="M14.1666 8.24999C17.2404 8.24999 19.9166 9.34099 19.9166 11.7976C19.9166 13.0926 19.3802 13.6667 18.2843 13.6667L12.6245 13.6667C12.8454 13.2473 12.9788 12.7439 13.015 12.1667L18.2843 12.1667C18.3264 12.1667 18.3574 12.1664 18.3792 12.1672L18.3983 12.1683L18.4014 12.1447C18.4076 12.0801 18.4166 11.9675 18.4166 11.7976C18.4166 10.5374 16.4851 9.74999 14.1666 9.74999C13.6004 9.74999 13.0573 9.79695 12.5598 9.88629C12.299 9.3861 11.9345 8.94862 11.4875 8.57391C12.296 8.3552 13.2122 8.24999 14.1666 8.24999ZM5.83331 8.24999C8.90702 8.24999 11.5833 9.34099 11.5833 11.7976C11.5833 13.0926 11.0469 13.6667 9.95096 13.6667H1.71567C0.619737 13.6667 0.083313 13.0926 0.083313 11.7976C0.083313 9.34099 2.7596 8.24999 5.83331 8.24999ZM5.83331 9.74999C3.51486 9.74999 1.58331 10.5374 1.58331 11.7976C1.58331 11.9797 1.59373 12.0961 1.59987 12.158L1.59998 12.1683L1.61778 12.1673C1.62874 12.1668 1.64221 12.1667 1.65844 12.1666L9.95096 12.1667C9.99302 12.1667 10.024 12.1664 10.0459 12.1672L10.065 12.1683L10.068 12.1447C10.0743 12.0801 10.0833 11.9675 10.0833 11.7976C10.0833 10.5374 8.15176 9.74999 5.83331 9.74999ZM14.1666 0.5C16.0772 0.5 17.625 2.04777 17.625 3.95833C17.625 5.8689 16.0772 7.41667 14.1666 7.41667C12.2561 7.41667 10.7083 5.8689 10.7083 3.95833C10.7083 2.04777 12.2561 0.5 14.1666 0.5ZM5.83331 0.5C7.74388 0.5 9.29165 2.04777 9.29165 3.95833C9.29165 5.8689 7.74388 7.41667 5.83331 7.41667C3.92275 7.41667 2.37498 5.8689 2.37498 3.95833C2.37498 2.04777 3.92275 0.5 5.83331 0.5ZM14.1666 2C13.0845 2 12.2083 2.87619 12.2083 3.95833C12.2083 5.04047 13.0845 5.91667 14.1666 5.91667C15.2488 5.91667 16.125 5.04047 16.125 3.95833C16.125 2.87619 15.2488 2 14.1666 2ZM5.83331 2C4.75117 2 3.87498 2.87619 3.87498 3.95833C3.87498 5.04047 4.75117 5.91667 5.83331 5.91667C6.91545 5.91667 7.79165 5.04047 7.79165 3.95833C7.79165 2.87619 6.91545 2 5.83331 2Z" fill="#749FC8"/>
</svg>
