<svg width="18" height="13" viewBox="0 0 18 13" fill="none" xmlns="http://www.w3.org/2000/svg">
<path d="M9.62316 0.98584C10.8968 0.98584 11.3586 1.11845 11.8242 1.36746C12.2898 1.61647 12.6552 1.98188 12.9042 2.44749C13.0701 2.75762 13.1843 3.06608 13.2421 3.61387L14.6755 2.71839C15.562 2.16433 16.7298 2.43382 17.2838 3.32031C17.4719 3.62115 17.5716 3.96877 17.5716 4.32353V9.07672C17.5716 10.1221 16.7241 10.9696 15.6787 10.9696C15.324 10.9696 14.9763 10.8699 14.6755 10.6819L13.2421 9.78638C13.1843 10.3342 13.0701 10.6426 12.9042 10.9528C12.6552 11.4184 12.2898 11.7838 11.8242 12.0328C11.3586 12.2818 10.8968 12.4144 9.62316 12.4144H4.0914C2.81781 12.4144 2.35597 12.2818 1.89036 12.0328C1.42475 11.7838 1.05934 11.4184 0.810329 10.9528C0.561319 10.4872 0.428711 10.0253 0.428711 8.75172V4.64853C0.428711 3.37493 0.561319 2.9131 0.810329 2.44749C1.05934 1.98188 1.42475 1.61647 1.89036 1.36746C2.35597 1.11845 2.81781 0.98584 4.0914 0.98584H9.62316ZM9.7929 2.41507L4.0914 2.41441C3.1459 2.41441 2.85797 2.47001 2.56407 2.62719C2.34742 2.74306 2.18593 2.90455 2.07006 3.1212C1.92271 3.39673 1.86463 3.66702 1.85795 4.4788L1.85728 8.75172C1.85728 9.69722 1.91288 9.98515 2.07006 10.279C2.18593 10.4957 2.34742 10.6572 2.56407 10.7731C2.85797 10.9302 3.1459 10.9858 4.0914 10.9858H9.62316C10.5687 10.9858 10.8566 10.9302 11.1505 10.7731C11.3671 10.6572 11.5286 10.4957 11.6445 10.279C11.8017 9.98515 11.8573 9.69722 11.8573 8.75172V4.64853C11.8573 3.70303 11.8017 3.4151 11.6445 3.1212C11.5286 2.90455 11.3671 2.74306 11.1505 2.62719C10.875 2.47984 10.6047 2.42176 9.7929 2.41507ZM15.4326 3.92981L13.2859 5.27155V8.1287L15.4326 9.47044C15.5064 9.51656 15.5917 9.54101 15.6787 9.54101C15.9351 9.54101 16.143 9.33314 16.143 9.07672V4.32353C16.143 4.23651 16.1185 4.15124 16.0724 4.07746C15.9365 3.86001 15.6501 3.79391 15.4326 3.92981Z" fill="#749FC8"/>
</svg>
