<svg width="18" height="18" viewBox="0 0 18 18" fill="none" xmlns="http://www.w3.org/2000/svg">
<path d="M16.8571 0.428711C17.2516 0.428711 17.5714 0.748507 17.5714 1.143V4.00014C17.5714 4.39463 17.2516 4.71443 16.8571 4.71443H15.4285V6.143C15.4285 6.50931 15.1528 6.81122 14.7976 6.85248L14.7143 6.85728H13.2857V8.28585C13.2857 8.65216 13.0099 8.95407 12.6547 8.99533L12.5714 9.00014H10.7457L10.8749 9.21392C11.2892 9.94289 11.5292 10.7648 11.5663 11.6225L11.5714 11.8573C11.5714 14.8159 9.17293 17.2144 6.21426 17.2144C3.25559 17.2144 0.857117 14.8159 0.857117 11.8573C0.857117 8.89861 3.25559 6.50014 6.21426 6.50014C6.63207 6.50014 7.04384 6.54811 7.44342 6.64198L7.4814 6.65157L13.4949 0.637947C13.6065 0.526304 13.7513 0.45543 13.9061 0.434906L14 0.428711H16.8571ZM16.1428 1.85728H14.2957L8.19492 7.95886C8.02463 8.12917 7.78173 8.2008 7.54942 8.15418L7.46296 8.13111C7.06436 7.99761 6.64445 7.92871 6.21426 7.92871C4.04457 7.92871 2.28569 9.68759 2.28569 11.8573C2.28569 14.027 4.04457 15.7859 6.21426 15.7859C8.38395 15.7859 10.1428 14.027 10.1428 11.8573C10.1428 10.9347 9.82472 10.063 9.25141 9.36521C9.01818 9.08135 9.03831 8.66685 9.29796 8.40693L9.92321 7.78104C10.0572 7.64692 10.239 7.57157 10.4285 7.57157H11.8571V6.143C11.8571 5.77669 12.1329 5.47478 12.4881 5.43352L12.5714 5.42871H14V4.00014C14 3.63383 14.2757 3.33192 14.631 3.29066L14.7143 3.28585H16.1428V1.85728ZM5.0714 12.0001C5.58424 12.0001 5.99997 12.4159 5.99997 12.9287C5.99997 13.4415 5.58424 13.8573 5.0714 13.8573C4.55857 13.8573 4.14283 13.4415 4.14283 12.9287C4.14283 12.4159 4.55857 12.0001 5.0714 12.0001Z" fill="#749FC8"/>
</svg>
