<svg width="35" height="35" cursor="pointer" viewBox="0 0 35 35" fill="none" xmlns="http://www.w3.org/2000/svg">
<circle cx="17.5" cy="17.5" r="17.5" fill="inherit"/>
<path d="M19 11.5C19 12.3284 18.3284 13 17.5 13C16.6716 13 16 12.3284 16 11.5C16 10.6716 16.6716 10 17.5 10C18.3284 10 19 10.6716 19 11.5Z" fill="#749FC8"/>
<path d="M19 17.5C19 18.3284 18.3284 19 17.5 19C16.6716 19 16 18.3284 16 17.5C16 16.6716 16.6716 16 17.5 16C18.3284 16 19 16.6716 19 17.5Z" fill="#749FC8"/>
<path d="M19 23.5C19 24.3284 18.3284 25 17.5 25C16.6716 25 16 24.3284 16 23.5C16 22.6716 16.6716 22 17.5 22C18.3284 22 19 22.6716 19 23.5Z" fill="#749FC8"/>
</svg>
