<svg width="20" height="12" cursor="pointer" viewBox="0 0 20 12" fill="none" xmlns="http://www.w3.org/2000/svg">
<path d="M10 0C5.58869 0 1.78673 2.38779 0.0402296 5.83353C-0.0134099 5.93794 -0.0134099 6.06009 0.0402296 6.16648C1.78673 9.6122 5.58871 12 10 12C14.4113 12 18.2133 9.61222 19.9598 6.16648C20.0134 6.06206 20.0134 5.93991 19.9598 5.83353C18.2133 2.38779 14.4113 0 10 0ZM10 10.1402C7.50899 10.1402 5.49214 8.28632 5.49214 6.00099C5.49214 3.71368 7.51113 1.86176 10 1.86176C12.491 1.86176 14.5079 3.71565 14.5079 6.00099C14.5079 8.28632 12.4889 10.1402 10 10.1402Z" fill="#5A7690"/>
<path d="M10 8.64883C11.5938 8.64883 12.8858 7.46247 12.8858 5.99902C12.8858 4.53556 11.5938 3.3492 10 3.3492C8.40622 3.3492 7.1142 4.53556 7.1142 5.99902C7.1142 7.46247 8.40622 8.64883 10 8.64883Z" fill="#5A7690"/>
</svg>
