<svg width="20" height="17" cursor="pointer" viewBox="0 0 20 17" fill="none" xmlns="http://www.w3.org/2000/svg">
<path fill-rule="evenodd" clip-rule="evenodd" d="M18.9706 1.41421L17.5564 0L14.6222 2.93416C13.2175 2.33464 11.6514 2 9.99999 2C5.58868 2 1.78674 4.38778 0.0402145 7.83352C-0.0134048 7.93794 -0.0134048 8.06009 0.0402145 8.16648C1.0371 10.1332 2.70364 11.7553 4.77093 12.7855L2.00005 15.5563L3.41427 16.9706L6.81536 13.5695C7.82323 13.8495 8.89242 14 9.99999 14C14.4113 14 18.2132 11.6122 19.9598 8.16648C20.0134 8.06206 20.0134 7.93991 19.9598 7.83352C19.169 6.2734 17.9569 4.93016 16.4576 3.92723L18.9706 1.41421ZM12.7999 4.75654C12.031 4.19638 11.0583 3.86176 9.99999 3.86176C7.51113 3.86176 5.49215 5.71368 5.49215 8.00099C5.49215 9.09904 5.95773 10.0975 6.71783 10.8386L7.82052 9.73588C7.38052 9.27078 7.11419 8.66346 7.11419 7.99902C7.11419 6.53556 8.40621 5.3492 9.99999 5.3492C10.6353 5.3492 11.2226 5.5377 11.6993 5.8571L12.7999 4.75654ZM12.843 7.54182L14.1023 6.28254C14.3627 6.80601 14.5078 7.38798 14.5078 8.00099C14.5078 10.2863 12.4889 12.1402 9.99999 12.1402C9.46813 12.1402 8.95788 12.0557 8.48428 11.9005L9.74612 10.6387C9.82977 10.6454 9.91445 10.6488 9.99999 10.6488C11.5938 10.6488 12.8858 9.46247 12.8858 7.99902C12.8858 7.84311 12.8711 7.69034 12.843 7.54182Z" fill="#C8D3DD"/>
</svg>
