<svg width="14" height="15" viewBox="0 0 14 15" fill="none" xmlns="http://www.w3.org/2000/svg">
<path d="M5.27304 0.900391L8.94879 0.901514C10.2447 0.915097 10.8991 1.05368 11.5776 1.41652C12.2254 1.76296 12.7373 2.27492 13.0838 2.92269C13.4668 3.63883 13.5999 4.32826 13.5999 5.77353V9.22725C13.5999 10.6725 13.4668 11.3619 13.0838 12.0781C12.7373 12.7259 12.2254 13.2378 11.5776 13.5843C10.8615 13.9673 10.172 14.1004 8.72676 14.1004H5.27304C3.82777 14.1004 3.13835 13.9673 2.4222 13.5843C1.77443 13.2378 1.26247 12.7259 0.916036 12.0781C0.533036 11.3619 0.399902 10.6725 0.399902 9.22725L0.401026 5.5515C0.414609 4.25561 0.553194 3.60114 0.916036 2.92269C1.26247 2.27492 1.77443 1.76296 2.4222 1.41652C3.13835 1.03352 3.82777 0.900391 5.27304 0.900391ZM9.05959 8.36144L6.57432 11.3816C6.36399 11.6372 5.9864 11.6742 5.73048 11.4643L4.36926 10.3477L2.49868 12.1847C2.645 12.316 2.80833 12.4299 2.98812 12.5261C3.45207 12.7742 3.90301 12.878 4.89827 12.8971L5.27304 12.9004H8.72676L9.10154 12.8971C9.97971 12.8802 10.4341 12.7974 10.8476 12.6078L11.0117 12.5261C11.4503 12.2915 11.791 11.9508 12.0256 11.5122C12.0921 11.3878 12.1483 11.2643 12.1952 11.131L9.05959 8.36144ZM8.72676 2.10039H5.27304L4.89827 2.10371C4.0201 2.12056 3.56571 2.20333 3.15223 2.39302L2.98812 2.4747C2.54947 2.70929 2.2088 3.04996 1.97421 3.48861L1.89254 3.65272C1.67755 4.12133 1.5999 4.64248 1.5999 5.77353V9.22725L1.60322 9.60203C1.61771 10.357 1.68092 10.7988 1.81892 11.1706L3.91281 9.11399C4.13147 8.89924 4.47682 8.88379 4.71377 9.07817L6.02837 10.1565L8.52781 7.11914C8.74359 6.85691 9.13381 6.82588 9.38833 7.05071L12.3942 9.70736C12.3951 9.67294 12.3959 9.63783 12.3966 9.60203L12.3999 9.22725V5.77353L12.3966 5.39875C12.3797 4.52058 12.297 4.0662 12.1073 3.65272L12.0256 3.48861C11.791 3.04996 11.4503 2.70929 11.0117 2.4747C10.5477 2.22658 10.0968 2.12281 9.10154 2.10371L8.72676 2.10039ZM4.66657 4.16706C5.21885 4.16706 5.66657 4.61477 5.66657 5.16706C5.66657 5.71934 5.21885 6.16706 4.66657 6.16706C4.11428 6.16706 3.66657 5.71934 3.66657 5.16706C3.66657 4.61477 4.11428 4.16706 4.66657 4.16706Z" fill="#99A2AD"/>
</svg>
