<svg width="16" height="16" viewBox="0 0 16 16" fill="none" xmlns="http://www.w3.org/2000/svg">
<path d="M12.0793 0.333496H3.92071C2.96081 0.333496 2.47143 0.427998 1.96209 0.700399C1.49188 0.951869 1.11837 1.32537 0.866903 1.79558C0.594503 2.30493 0.5 2.7943 0.5 3.75421V8.57945C0.5 9.53936 0.594503 10.0287 0.866903 10.5381C1.11837 11.0083 1.49188 11.3818 1.96209 11.6333L2.0795 11.693C2.51034 11.9008 2.95389 11.9857 3.70733 11.9984L3.91667 12.0002V13.8459C3.91667 14.2058 4.05775 14.5513 4.30962 14.8083L4.40681 14.8985C4.94243 15.3498 5.74361 15.3282 6.25407 14.8279L9.13833 12.0002H12.0793C13.0392 12.0002 13.5286 11.9057 14.0379 11.6333C14.5081 11.3818 14.8816 11.0083 15.1331 10.5381C15.4055 10.0287 15.5 9.53936 15.5 8.57945V3.75421C15.5 2.7943 15.4055 2.30493 15.1331 1.79558C14.8816 1.32537 14.5081 0.951869 14.0379 0.700399C13.5286 0.427998 13.0392 0.333496 12.0793 0.333496ZM3.75972 1.83439L12.0793 1.8335C12.8127 1.8335 13.0682 1.88282 13.3305 2.02312C13.5393 2.13479 13.6987 2.29418 13.8104 2.50298C13.9507 2.76531 14 3.02075 14 3.75421V8.57945L13.9963 8.88579C13.9827 9.39167 13.9291 9.6087 13.8104 9.83068C13.6987 10.0395 13.5393 10.1989 13.3305 10.3105C13.0682 10.4508 12.8127 10.5002 12.0793 10.5002H8.83333L8.73603 10.5065C8.57556 10.5275 8.42521 10.6 8.30839 10.7145L5.41667 13.5477V11.2502C5.41667 10.8359 5.08088 10.5002 4.66667 10.5002H3.92071L3.61437 10.4965C3.10849 10.4828 2.89146 10.4293 2.66948 10.3105C2.46068 10.1989 2.30129 10.0395 2.18962 9.83068C2.04933 9.56835 2 9.31291 2 8.57945V3.75421L2.00365 3.44787C2.01733 2.94199 2.07091 2.72495 2.18962 2.50298C2.30129 2.29418 2.46068 2.13479 2.66948 2.02312C2.91164 1.89362 3.14791 1.84162 3.75972 1.83439Z" fill="#749FC8"/>
</svg>
