<svg width="18" height="18" viewBox="0 0 18 18" fill="none" xmlns="http://www.w3.org/2000/svg">
<path d="M7.75 0.25C11.7541 0.25 15 3.49594 15 7.5C15 9.14122 14.4547 10.6551 13.5353 11.8702L17.7071 16.0429C18.0976 16.4334 18.0976 17.0666 17.7071 17.4571C17.3166 17.8476 16.6834 17.8476 16.2929 17.4571L12.1202 13.2853C10.9051 14.2047 9.39122 14.75 7.75 14.75C3.74594 14.75 0.5 11.5041 0.5 7.5C0.5 3.49594 3.74594 0.25 7.75 0.25ZM7.75 2.25C4.8505 2.25 2.5 4.6005 2.5 7.5C2.5 10.3995 4.8505 12.75 7.75 12.75C10.6495 12.75 13 10.3995 13 7.5C13 4.6005 10.6495 2.25 7.75 2.25Z" fill="#99A2AD"/>
</svg>
