<svg width="20" height="21" viewBox="0 0 20 21" fill="#5D6267" xmlns="http://www.w3.org/2000/svg">
<path d="M9.99972 0.285645C12.0366 0.285645 13.3642 1.343 13.7898 3.28524L18.9997 3.28564C19.4731 3.28564 19.8569 3.6694 19.8569 4.14279C19.8569 4.61617 19.4731 4.99993 18.9997 4.99993H18.0526L16.6706 18.1263C16.5329 19.435 15.4293 20.4285 14.1133 20.4285H5.88611C4.57016 20.4285 3.46657 19.435 3.32881 18.1263L1.94686 4.99993H0.999721C0.526334 4.99993 0.142578 4.61617 0.142578 4.14279C0.142578 3.6694 0.526334 3.28564 0.999721 3.28564L6.20966 3.28524C6.63528 1.343 7.96285 0.285645 9.99972 0.285645ZM16.328 4.99993H3.67058L5.03368 17.9468C5.0796 18.383 5.44746 18.7142 5.88611 18.7142H14.1133C14.552 18.7142 14.9198 18.383 14.9658 17.9468L16.328 4.99993ZM9.99972 6.71422C10.4731 6.71422 10.8569 7.09797 10.8569 7.57136V16.1428C10.8569 16.6162 10.4731 16.9999 9.99972 16.9999C9.52633 16.9999 9.14258 16.6162 9.14258 16.1428V7.57136C9.14258 7.09797 9.52633 6.71422 9.99972 6.71422ZM13.4711 6.71528C13.9439 6.73892 14.308 7.14137 14.2844 7.61416L13.8558 16.1856C13.8322 16.6584 13.4297 17.0225 12.9569 16.9989C12.4841 16.9752 12.12 16.5728 12.1436 16.1L12.5722 7.52856C12.5959 7.05576 12.9983 6.69164 13.4711 6.71528ZM6.52835 6.71528C7.00114 6.69164 7.40358 7.05576 7.42722 7.52856L7.8558 16.1C7.87944 16.5728 7.51532 16.9752 7.04252 16.9989C6.56973 17.0225 6.16729 16.6584 6.14365 16.1856L5.71508 7.61416C5.69144 7.14137 6.05555 6.73892 6.52835 6.71528ZM9.99972 1.99993C8.91397 1.99993 8.28572 2.38917 7.98357 3.28527H12.0159C11.7137 2.38917 11.0855 1.99993 9.99972 1.99993Z" fill="inherit"/>
</svg>
