<svg width="20" height="17" viewBox="0 0 20 17" fill="none" xmlns="http://www.w3.org/2000/svg">
<path d="M18.4048 16.6998H1.6048C1.3248 16.6998 1.0648 16.5398 0.904805 16.2998C0.764805 16.0598 0.764805 15.7598 0.904805 15.4998L9.30481 0.699805C9.44481 0.439805 9.70481 0.299805 10.0048 0.299805C10.3048 0.299805 10.5648 0.459805 10.7048 0.699805L19.1048 15.4998C19.2448 15.7398 19.2448 16.0598 19.1048 16.2998C18.9448 16.5398 18.6848 16.6998 18.4048 16.6998ZM2.98481 15.0998H17.0448L10.0248 2.7198L2.98481 15.0998ZM10.8048 10.3198V6.5998C10.8048 6.1598 10.4448 5.7998 10.0048 5.7998C9.56481 5.7998 9.20481 6.1598 9.20481 6.5998V10.3198C9.20481 10.7598 9.56481 11.1198 10.0048 11.1198C10.4448 11.1198 10.8048 10.7598 10.8048 10.3198ZM10.7048 13.6398C10.8848 13.4598 11.0048 13.1998 11.0048 12.9398C11.0048 12.6798 10.9048 12.4198 10.7048 12.2398C10.5248 12.0598 10.2648 11.9398 10.0048 11.9398C9.74481 11.9398 9.48481 12.0398 9.30481 12.2398C9.12481 12.4198 9.00481 12.6798 9.00481 12.9398C9.00481 13.1998 9.10481 13.4598 9.30481 13.6398C9.48481 13.8198 9.74481 13.9398 10.0048 13.9398C10.2648 13.9398 10.5248 13.8198 10.7048 13.6398Z" fill="#FFAD33"/>
</svg>
