<svg width="24" height="24" viewBox="0 0 24 24" fill="none" xmlns="http://www.w3.org/2000/svg">
<path d="M12 19.7C16.2526 19.7 19.7 16.2526 19.7 12C19.7 7.74741 16.2526 4.3 12 4.3C7.74741 4.3 4.3 7.74741 4.3 12C4.3 16.2526 7.74741 19.7 12 19.7ZM12 21.5C6.75329 21.5 2.5 17.2467 2.5 12C2.5 6.75329 6.75329 2.5 12 2.5C17.2467 2.5 21.5 6.75329 21.5 12C21.5 17.2467 17.2467 21.5 12 21.5ZM12 9.74634C11.3096 9.74634 10.75 9.18669 10.75 8.49634C10.75 7.80598 11.3096 7.24634 12 7.24634C12.6904 7.24634 13.25 7.80598 13.25 8.49634C13.25 9.18669 12.6904 9.74634 12 9.74634ZM11.1 12.4274C11.1 11.9132 11.5029 11.4963 12 11.4963C12.4971 11.4963 12.9 11.9132 12.9 12.4274V16.0653C12.9 16.5795 12.4971 16.9963 12 16.9963C11.5029 16.9963 11.1 16.5795 11.1 16.0653V12.4274Z" fill="#99A2AD"/>
</svg>
