<svg width="24" height="24" viewBox="0 0 24 24" fill="none" xmlns="http://www.w3.org/2000/svg">
<path fill-rule="evenodd" clip-rule="evenodd" d="M22.8865 12.2453C23.1982 12.5516 23.2262 13.0375 22.9676 13.376L22.897 13.4574L17.0148 19.4574C16.7053 19.7723 16.2132 19.7971 15.8749 19.5315L15.7937 19.459L12.2474 15.8695C11.9147 15.5327 11.918 14.99 12.2547 14.6573C12.5656 14.3502 13.0519 14.3294 13.3866 14.5929L13.4669 14.6646L16.4014 17.6352L21.6744 12.2558C22.0062 11.9181 22.5489 11.9134 22.8865 12.2453ZM8.14286 14.5709C8.61624 14.5709 9 14.9546 9 15.428C9 15.9014 8.61624 16.2852 8.14286 16.2852H3.85714C3.38376 16.2852 3 15.9014 3 15.428C3 14.9546 3.38376 14.5709 3.85714 14.5709H8.14286ZM18.4286 9.42801C18.902 9.42801 19.2857 9.81177 19.2857 10.2852C19.2857 10.7585 18.902 11.1423 18.4286 11.1423H3.85714C3.38376 11.1423 3 10.7585 3 10.2852C3 9.81177 3.38376 9.42801 3.85714 9.42801H18.4286ZM18.4286 4.28516C18.902 4.28516 19.2857 4.66891 19.2857 5.1423C19.2857 5.61569 18.902 5.99944 18.4286 5.99944H3.85714C3.38376 5.99944 3 5.61569 3 5.1423C3 4.66891 3.38376 4.28516 3.85714 4.28516H18.4286Z" fill="#99A2AD"/>
</svg>
