<svg width="24" height="24" viewBox="0 0 24 24" fill="none" xmlns="http://www.w3.org/2000/svg">
<path d="M16.505 4.38079C15.3651 3.36079 13.765 2.80078 12.025 2.80078C10.285 2.80078 8.68504 3.36079 7.54504 4.38079C6.16504 5.62079 5.42504 7.48079 5.42504 9.78079C5.42504 14.8008 11.2051 20.7008 11.4651 20.9408C11.6251 21.1008 11.825 21.1808 12.025 21.1808C12.225 21.1808 12.4451 21.1008 12.5851 20.9408C12.8251 20.7008 18.625 14.8008 18.625 9.78079C18.605 7.48079 17.885 5.62079 16.505 4.38079ZM12.005 19.2208C11.465 18.6208 10.6051 17.6208 9.76506 16.4208C7.96506 13.8608 7.00505 11.5808 7.00505 9.80078C7.00505 4.80078 10.825 4.40078 12.005 4.40078C16.6451 4.40078 17.005 8.54078 17.005 9.80078C17.005 13.3208 13.425 17.6608 12.005 19.2208ZM12.005 6.26078C10.245 6.26078 8.82504 7.72078 8.82504 9.50078C8.82504 11.2808 10.245 12.7408 12.005 12.7408C13.765 12.7408 15.1851 11.2808 15.1851 9.50078C15.1851 7.70078 13.765 6.26078 12.005 6.26078ZM12.005 11.3208C11.025 11.3208 10.225 10.5008 10.225 9.48079C10.225 8.46079 11.025 7.64078 12.005 7.64078C12.985 7.64078 13.7851 8.46079 13.7851 9.48079C13.7851 10.5008 12.985 11.3208 12.005 11.3208Z" fill="#99A2AD"/>
</svg>
