<svg width="24" height="24" viewBox="0 0 24 24" fill="none" xmlns="http://www.w3.org/2000/svg">
<path d="M8.92272 4.28655C10.0656 4.28655 10.0656 6.00084 8.92272 6.00084L8.44496 6.00502C7.177 6.02906 6.60926 6.1597 6.02538 6.47196C5.47634 6.76559 5.05057 7.19136 4.75694 7.7404C4.44468 8.32428 4.31404 8.89202 4.29 10.16L4.28582 10.6377V15.0782C4.28582 16.6906 4.40794 17.323 4.75694 17.9756C5.05057 18.5246 5.47634 18.9504 6.02538 19.244C6.60926 19.5563 7.177 19.6869 8.44496 19.7109L8.92272 19.7151H15.0775C16.6898 19.7151 17.3223 19.593 17.9748 19.244C18.5239 18.9504 18.9496 18.5246 19.2433 17.9756C19.5555 17.3917 19.6862 16.8239 19.7102 15.556L19.7144 15.0782V10.6377L19.7102 10.16C19.6862 8.89202 19.5555 8.32428 19.2433 7.7404C18.9496 7.19136 18.5239 6.76559 17.9748 6.47196C17.391 6.1597 16.8232 6.02906 15.5552 6.00502L15.0775 6.00084L14.9633 5.99486C13.9727 5.88859 13.9727 4.3988 14.9633 4.29253L15.0775 4.28655H15.4287L15.4895 4.28912L15.6373 4.29251C17.0502 4.32473 17.8493 4.49156 18.6358 4.88403L18.7833 4.96028C19.6311 5.41368 20.3015 6.08415 20.7549 6.93194C21.2286 7.81761 21.4095 8.67178 21.4272 10.3502L21.4287 10.6377V15.0782C21.4287 16.9494 21.2549 17.8491 20.7549 18.784C20.3015 19.6318 19.6311 20.3023 18.7833 20.7557C17.8976 21.2293 17.0435 21.4102 15.365 21.4279L8.92272 21.4294C7.05157 21.4294 6.1518 21.2557 5.21692 20.7557C4.36914 20.3023 3.69866 19.6318 3.24526 18.784C2.7716 17.8983 2.59073 17.0442 2.573 15.3657L2.57153 10.6377C2.57153 8.76659 2.74529 7.86681 3.24526 6.93194C3.69866 6.08415 4.36914 5.41368 5.21692 4.96028C6.05339 4.51293 6.86175 4.32675 8.36294 4.29251L8.50982 4.28912L8.57153 4.28655H8.92272ZM12.8572 14.5723C13.3306 14.5723 13.7144 14.956 13.7144 15.4294C13.7144 15.9028 13.3306 16.2866 12.8572 16.2866H7.71439C7.241 16.2866 6.85725 15.9028 6.85725 15.4294C6.85725 14.956 7.241 14.5723 7.71439 14.5723H12.8572ZM16.2858 10.2866C16.7592 10.2866 17.143 10.6703 17.143 11.1437C17.143 11.6171 16.7592 12.0008 16.2858 12.0008H7.71439C7.241 12.0008 6.85725 11.6171 6.85725 11.1437C6.85725 10.6703 7.241 10.2866 7.71439 10.2866H16.2858ZM12.0001 2.57227C12.4735 2.57227 12.8572 2.95602 12.8572 3.42941V6.85798C12.8572 7.33137 12.4735 7.71512 12.0001 7.71512C11.5267 7.71512 11.143 7.33137 11.143 6.85798V3.42941C11.143 2.95602 11.5267 2.57227 12.0001 2.57227Z" fill="#99A2AD"/>
</svg>
