<svg width="36" height="36" viewBox="0 0 36 36" fill="none" xmlns="http://www.w3.org/2000/svg">
<mask id="mask0" mask-type="alpha" maskUnits="userSpaceOnUse" x="0" y="0" width="36" height="36">
<path fill-rule="evenodd" clip-rule="evenodd" d="M0 18C0 8.05888 8.05888 0 18 0C27.9411 0 36 8.05888 36 18C36 27.9411 27.9411 36 18 36C8.05888 36 0 27.9411 0 18Z" fill="white"/>
</mask>
<g mask="url(#mask0)">
<path fill-rule="evenodd" clip-rule="evenodd" d="M0 18C0 8.05888 8.05888 0 18 0C27.9411 0 36 8.05888 36 18C36 27.9411 27.9411 36 18 36C8.05888 36 0 27.9411 0 18Z" fill="#749FC8"/>
<path fill-rule="evenodd" clip-rule="evenodd" d="M17.1403 10.1292C17.3959 10.1288 17.6811 10.1292 18.0015 10.1292C20.5647 10.1292 20.8685 10.1384 21.8807 10.1844C22.8167 10.2272 23.3247 10.3836 23.6631 10.515C24.1111 10.689 24.4305 10.897 24.7663 11.233C25.1024 11.569 25.3104 11.889 25.4848 12.337C25.6162 12.675 25.7728 13.183 25.8154 14.119C25.8614 15.131 25.8714 15.435 25.8714 17.997C25.8714 20.5591 25.8614 20.8631 25.8154 21.8751C25.7726 22.8111 25.6162 23.3191 25.4848 23.6571C25.3108 24.1051 25.1024 24.4241 24.7663 24.7599C24.4303 25.0959 24.1113 25.3039 23.6631 25.4779C23.3251 25.6099 22.8167 25.7659 21.8807 25.8087C20.8687 25.8547 20.5647 25.8647 18.0015 25.8647C15.4381 25.8647 15.1342 25.8547 14.1222 25.8087C13.1862 25.7655 12.6782 25.6091 12.3396 25.4777C11.8916 25.3037 11.5716 25.0957 11.2356 24.7597C10.8996 24.4237 10.6916 24.1045 10.5172 23.6563C10.3858 23.3183 10.2292 22.8103 10.1866 21.8743C10.1406 20.8623 10.1314 20.5583 10.1314 17.9946C10.1314 15.431 10.1406 15.1286 10.1866 14.1166C10.2294 13.1806 10.3858 12.6726 10.5172 12.3342C10.6912 11.8862 10.8996 11.5662 11.2356 11.2302C11.5716 10.8942 11.8916 10.6862 12.3396 10.5118C12.678 10.3798 13.1862 10.2238 14.1222 10.1808C15.0078 10.1408 15.3511 10.1288 17.1403 10.1268V10.1292ZM18.0015 8.40039C15.3943 8.40039 15.0671 8.41179 14.0431 8.45839C13.0211 8.50519 12.3235 8.66699 11.7131 8.9044C11.0817 9.1496 10.5461 9.4776 10.0125 10.0114C9.47845 10.545 9.15044 11.0806 8.90444 11.7118C8.66644 12.3224 8.50444 13.0202 8.45844 14.0418C8.41263 15.0659 8.40063 15.3933 8.40063 18.0005C8.40063 20.6077 8.41223 20.9339 8.45864 21.9579C8.50564 22.9799 8.66744 23.6776 8.90464 24.288C9.15004 24.9194 9.47805 25.455 10.0119 25.9886C10.5453 26.5226 11.0809 26.8514 11.7119 27.0966C12.3227 27.334 13.0205 27.4958 14.0423 27.5426C15.0663 27.5892 15.3933 27.6006 18.0003 27.6006C20.6078 27.6006 20.934 27.5892 21.958 27.5426C22.98 27.4958 23.6784 27.334 24.2892 27.0966C24.9204 26.8514 25.4552 26.5226 25.9886 25.9886C26.5226 25.455 26.8506 24.9194 27.0966 24.2882C27.3326 23.6776 27.4946 22.9797 27.5426 21.9581C27.5886 20.9341 27.6006 20.6077 27.6006 18.0005C27.6006 15.3933 27.5886 15.0661 27.5426 14.042C27.4946 13.02 27.3326 12.3224 27.0966 11.712C26.8506 11.0806 26.5226 10.545 25.9886 10.0114C25.4546 9.4774 24.9206 9.1494 24.2886 8.9044C23.6766 8.66699 22.9786 8.50519 21.9566 8.45839C20.9326 8.41179 20.6066 8.40039 17.9985 8.40039H18.0015ZM23.1258 11.7241C22.4898 11.7241 21.9738 12.2395 21.9738 12.8757C21.9738 13.5117 22.4898 14.0278 23.1258 14.0278C23.7618 14.0278 24.2778 13.5117 24.2778 12.8757C24.2778 12.2397 23.7618 11.7237 23.1258 11.7237V11.7241ZM18.0014 13.0702C15.2788 13.0702 13.0713 15.2776 13.0713 18.0003C13.0713 20.7229 15.2788 22.9293 18.0014 22.9293C20.724 22.9293 22.9306 20.7229 22.9306 18.0003C22.9306 15.2776 20.7238 13.0702 18.0012 13.0702H18.0014ZM18.0011 14.7999C19.7683 14.7999 21.2011 16.2325 21.2011 17.9999C21.2011 19.7672 19.7683 21.2 18.0011 21.2C16.2336 21.2 14.801 19.7672 14.801 17.9999C14.801 16.2325 16.2336 14.7999 18.0011 14.7999Z" fill="white"/>
</g>
</svg>
