<svg width="36" height="36" viewBox="0 0 36 36" fill="none" xmlns="http://www.w3.org/2000/svg">
<path fill-rule="evenodd" clip-rule="evenodd" d="M0 18C0 8.05888 8.05888 0 18 0C27.9411 0 36 8.05888 36 18C36 27.9411 27.9411 36 18 36C8.05888 36 0 27.9411 0 18Z" fill="#749FC8"/>
<path fill-rule="evenodd" clip-rule="evenodd" d="M12.9897 11.117C12.9632 9.9153 12.1039 9 10.7084 9C9.31294 9 8.40063 9.9153 8.40063 11.117C8.40063 12.2939 9.28598 13.2355 10.6555 13.2355H10.6815C12.1039 13.2355 12.9897 12.2939 12.9897 11.117ZM12.7208 14.908H8.64165V27.1643H12.7208V14.908ZM22.7351 14.6197C25.4194 14.6197 27.4318 16.3718 27.4318 20.1364L27.4316 27.1638H23.3526V20.6067C23.3526 18.9597 22.7623 17.8358 21.2856 17.8358C20.1587 17.8358 19.4874 18.5935 19.1926 19.3253C19.0847 19.5875 19.0582 19.9529 19.0582 20.3192V27.1641H14.9786C14.9786 27.1641 15.0323 16.0579 14.9786 14.9079H19.0582V16.6439C19.5997 15.8093 20.5693 14.6197 22.7351 14.6197Z" fill="white"/>
</svg>
