<svg width="36" height="36" viewBox="0 0 36 36" fill="none" xmlns="http://www.w3.org/2000/svg">
<path fill-rule="evenodd" clip-rule="evenodd" d="M18 36C27.9411 36 36 27.9411 36 18C36 8.05888 27.9411 0 18 0C8.05888 0 0 8.05888 0 18C0 27.9411 8.05888 36 18 36Z" fill="#749FC8"/>
<path fill-rule="evenodd" clip-rule="evenodd" d="M31.2 17.7643C31.2 16.118 29.8549 14.7786 28.2011 14.7786C27.4447 14.7786 26.7545 15.0614 26.2265 15.5232C24.3475 14.3215 21.8634 13.5395 19.1124 13.4026L20.559 8.85052L24.5058 9.77582C24.5501 11.1019 25.6445 12.1682 26.9876 12.1682C28.3582 12.1682 29.4735 11.0581 29.4735 9.69321C29.4735 8.32833 28.3579 7.21826 26.9876 7.21826C25.9919 7.21826 25.1338 7.80526 24.7368 8.64824L20.3019 7.6094C20.0081 7.5408 19.7096 7.70922 19.6196 7.99586L17.9072 13.3848C14.9783 13.442 12.3212 14.2295 10.3299 15.4838C9.80772 15.0448 9.13369 14.7786 8.39898 14.7786C6.74514 14.7788 5.40002 16.118 5.40002 17.7643C5.40002 18.8125 5.94652 19.734 6.76918 20.2664C6.72726 20.5338 6.70468 20.8047 6.70468 21.0787C6.70468 25.3243 11.8823 28.7786 18.2473 28.7786C24.6116 28.7786 29.7898 25.3243 29.7898 21.0787C29.7898 20.8245 29.7705 20.5732 29.7344 20.3245C30.6096 19.8038 31.2 18.8528 31.2 17.7643ZM26.9877 8.36846C27.7215 8.36846 28.3185 8.96304 28.3185 9.69365C28.3185 10.4243 27.7215 11.0185 26.9877 11.0185C26.2536 11.0185 25.6567 10.4243 25.6567 9.69365C25.6567 8.96304 26.2536 8.36846 26.9877 8.36846ZM6.5554 17.7663C6.5554 16.7543 7.38246 15.9306 8.39892 15.9306C8.74224 15.9306 9.06298 16.0266 9.33886 16.1904C8.31009 17.0225 7.54019 18.0018 7.10599 19.0722C6.76619 18.7392 6.5554 18.2771 6.5554 17.7663ZM28.6337 21.0796C28.6337 24.6906 23.9733 27.6291 18.2462 27.6291C12.5184 27.6291 7.85881 24.6909 7.85881 21.0796C7.85881 20.9524 7.86585 20.8269 7.87699 20.7016C7.91188 20.3178 8.00101 19.9424 8.13675 19.5787C8.48886 18.6359 9.16435 17.7708 10.087 17.0331C10.3822 16.797 10.7021 16.574 11.0445 16.3659C12.9136 15.2301 15.4519 14.5296 18.2462 14.5296C21.081 14.5296 23.6537 15.25 25.5289 16.4149C25.8722 16.6277 26.1912 16.856 26.4849 17.0974C27.3709 17.8239 28.0186 18.671 28.3601 19.5919C28.4947 19.9567 28.5838 20.3324 28.6173 20.7171C28.6275 20.8377 28.6337 20.9579 28.6337 21.0796ZM29.4174 19.1408C28.9955 18.0593 28.2273 17.0701 27.1991 16.2274C27.4876 16.0403 27.8312 15.9306 28.2007 15.9306C29.2174 15.9306 30.0445 16.754 30.0445 17.7663C30.0439 18.3136 29.8005 18.8045 29.4174 19.1408Z" fill="white"/>
<path fill-rule="evenodd" clip-rule="evenodd" d="M16.2124 19.6958C16.2124 18.7261 15.4226 17.9126 14.4483 17.9126C13.4744 17.9126 12.6576 18.7261 12.6576 19.6958C12.6576 20.6651 13.4747 21.4524 14.4483 21.4524C15.4226 21.4512 16.2124 20.6651 16.2124 19.6958Z" fill="white"/>
<path fill-rule="evenodd" clip-rule="evenodd" d="M22.1775 17.9116C21.2036 17.9116 20.3842 18.7248 20.3842 19.6945C20.3842 20.6645 21.2036 21.4511 22.1775 21.4511C23.1518 21.4511 23.9422 20.665 23.9422 19.6945C23.9416 18.7242 23.1518 17.9116 22.1775 17.9116Z" fill="white"/>
<path fill-rule="evenodd" clip-rule="evenodd" d="M21.6787 23.9523C21.0252 24.602 19.9249 24.9175 18.3127 24.9175C18.3077 24.9175 18.3033 24.919 18.2986 24.919C18.2936 24.919 18.2895 24.9175 18.2848 24.9175C16.6723 24.9175 15.5717 24.602 14.9191 23.9523C14.6936 23.7275 14.3278 23.7275 14.1023 23.9523C13.8765 24.1773 13.8765 24.5413 14.1023 24.7652C14.9821 25.6414 16.3504 26.0679 18.2848 26.0679C18.2898 26.0679 18.2939 26.0661 18.2986 26.0661C18.3033 26.0661 18.3077 26.0679 18.3127 26.0679C20.2468 26.0679 21.6154 25.6414 22.4961 24.7658C22.7221 24.5407 22.7221 24.177 22.4967 23.9528C22.2706 23.7281 21.9047 23.7281 21.6787 23.9523Z" fill="white"/>
</svg>
