<svg width="36" height="36" viewBox="0 0 36 36" fill="none" xmlns="http://www.w3.org/2000/svg">
<path fill-rule="evenodd" clip-rule="evenodd" d="M0 18C0 8.05888 8.05888 0 18 0C27.9411 0 36 8.05888 36 18C36 27.9411 27.9411 36 18 36C8.05888 36 0 27.9411 0 18Z" fill="#749FC8"/>
<path fill-rule="evenodd" clip-rule="evenodd" d="M17.4609 14.6304L17.4987 15.2533L16.8691 15.177C14.5776 14.8847 12.5757 13.8932 10.876 12.228L10.045 11.4018L9.83098 12.012C9.37772 13.372 9.6673 14.8084 10.6116 15.7744C11.1152 16.3083 11.0019 16.3846 10.1332 16.0668C9.83098 15.9651 9.56658 15.8888 9.5414 15.927C9.45326 16.0159 9.75544 17.1726 9.99466 17.6302C10.322 18.2658 10.9893 18.8886 11.7196 19.2572L12.3365 19.5496L11.6063 19.5623C10.9012 19.5623 10.876 19.575 10.9515 19.842C11.2034 20.6682 12.198 21.5452 13.306 21.9266L14.0866 22.1935L13.4067 22.6002C12.3995 23.185 11.216 23.5154 10.0324 23.5409C9.46585 23.5536 9 23.6044 9 23.6426C9 23.7697 10.5361 24.4815 11.43 24.7611C14.1118 25.5873 17.2972 25.2314 19.6894 23.8205C21.3892 22.8163 23.0889 20.8207 23.8821 18.8886C24.3102 17.859 24.7383 15.9778 24.7383 15.0753C24.7383 14.4906 24.7761 14.4143 25.4811 13.7152C25.8966 13.3085 26.2869 12.8636 26.3625 12.7365C26.4884 12.495 26.4758 12.495 25.8337 12.7111C24.7635 13.0924 24.6124 13.0416 25.1412 12.4696C25.5315 12.0628 25.9973 11.3256 25.9973 11.1095C25.9973 11.0713 25.8085 11.1349 25.5944 11.2493C25.3678 11.3764 24.8642 11.5671 24.4865 11.6815L23.8066 11.8976L23.1896 11.4781C22.8497 11.2493 22.3712 10.9951 22.1194 10.9188C21.4773 10.7409 20.4952 10.7663 19.9161 10.9697C18.3422 11.5416 17.3476 13.0161 17.4609 14.6304Z" fill="white"/>
</svg>
