<svg width="36" height="36" viewBox="0 0 36 36" fill="none" xmlns="http://www.w3.org/2000/svg">
<path fill-rule="evenodd" clip-rule="evenodd" d="M18 36C27.9411 36 36 27.9411 36 18C36 8.05888 27.9411 0 18 0C8.05888 0 0 8.05888 0 18C0 27.9411 8.05888 36 18 36Z" fill="#749FC8"/>
<path fill-rule="evenodd" clip-rule="evenodd" d="M18.5927 28.014H18.5883C16.797 28.0134 15.0368 27.5639 13.4734 26.7112L7.79944 28.1996L9.3179 22.6532C8.38124 21.03 7.88837 19.1887 7.88918 17.3023C7.89152 11.4009 12.6931 6.59961 18.5926 6.59961C21.4559 6.60085 24.1433 7.71551 26.1641 9.73867C28.1849 11.7617 29.2972 14.4509 29.296 17.3107C29.2937 23.2108 24.4941 28.0116 18.5927 28.014ZM13.7357 24.7737L14.0606 24.9665C15.4265 25.777 16.9922 26.2059 18.5885 26.2065H18.5922C23.4955 26.2065 27.4863 22.2156 27.4882 17.3103C27.4892 14.9332 26.5647 12.6981 24.8851 11.0165C23.2055 9.33496 20.9718 8.40844 18.5957 8.40762C13.6885 8.40762 9.69767 12.3981 9.69573 17.3031C9.69504 18.9841 10.1654 20.6211 11.0559 22.0375L11.2674 22.3741L10.3687 25.6569L13.7357 24.7737ZM23.986 19.8557C23.9192 19.7442 23.741 19.6772 23.4735 19.5433C23.2061 19.4095 21.8912 18.7625 21.646 18.6732C21.4009 18.584 21.2226 18.5394 21.0443 18.8071C20.866 19.0748 20.3535 19.6772 20.1975 19.8557C20.0415 20.0341 19.8855 20.0566 19.6181 19.9226C19.3507 19.7888 18.4889 19.5064 17.4674 18.5952C16.6723 17.8861 16.1356 17.0103 15.9796 16.7426C15.8236 16.4748 15.963 16.3301 16.0969 16.1968C16.2172 16.0769 16.3643 15.8843 16.498 15.7282C16.6317 15.5721 16.6763 15.4604 16.7655 15.2821C16.8546 15.1035 16.81 14.9474 16.7432 14.8135C16.6763 14.6796 16.1415 13.3632 15.9186 12.8277C15.7015 12.3062 15.481 12.3769 15.3169 12.3687C15.1611 12.3608 14.9826 12.3592 14.8043 12.3592C14.626 12.3592 14.3363 12.4261 14.0911 12.6939C13.846 12.9616 13.1551 13.6086 13.1551 14.9249C13.1551 16.2413 14.1134 17.5131 14.2471 17.6915C14.3808 17.8701 16.133 20.5713 18.8158 21.7298C19.4539 22.0053 19.952 22.1699 20.3404 22.2931C20.9811 22.4967 21.5641 22.468 22.0249 22.3991C22.5388 22.3224 23.6072 21.7522 23.8301 21.1275C24.0529 20.5027 24.0529 19.9672 23.986 19.8557Z" fill="#FDFDFD"/>
</svg>
